<?xml version="1.0" encoding="UTF-8"?>
<svg id="Layer_1" xmlns="http://www.w3.org/2000/svg" viewBox="0 0 50 38.33">
  <defs>
    <style>
      .cls-1 {
        fill: #1da1f2;
      }

      .cls-2 {
        fill: #fff;
      }
    </style>
  </defs>
  <path class="cls-1" d="M50,6.85v36.29c0,.28-.02.55-.05.82-.41,3.4-3.3,6.03-6.81,6.03H6.85c-3.79,0-6.85-3.07-6.85-6.85V6.85C0,3.07,3.07,0,6.85,0h36.29c3.79,0,6.85,3.07,6.85,6.85h.01Z"/>
  <circle class="cls-2" cx="41.84" cy="8.16" r="5.98"/>
  <path class="cls-2" d="M23.92,14.57c-1.33,1.77-2.47,1.86-3.36,1.77.42.27,1.25.41,1.89.51-2.58,1.62-4.18,2.43-8.27.73-3.77,2.54-8.58,1.79-12.7.94,3.41-.36,4.97-1.62,6.98-2.51-.79-.3-2.11-1.92-2.55-3.59.52.22,1.31.87,1.75.85-.7-.35-2.01-2.03-1.31-4.19.5.52,1.27,1.33,1.67,1.45-.42-.58-.58-2.1.36-3.27.36,1.67,3.12,3.63,4.82,3.48.71-3.93,4.62-4.11,6.29-1.34.8.01,2.32.4,2.32.4,0,0-.99.51-2,.73.69.13.84.1,1.91.08-.6.45-1.19.95-2.06,1.21-.02.07-.04.14-.05.2,2.5.47,4.79-.76,5.47-1.27.35,1.45-.61,3.08-2.88,3.82.46.13.94.18,1.73,0h0Z"/>
  <path class="cls-2" d="M33.98,7.86c-.61.81-1.13.85-1.54.81.19.13.57.19.86.23-1.18.74-1.91,1.11-3.79.33-1.73,1.16-3.93.82-5.82.43,1.56-.17,2.28-.74,3.2-1.15-.36-.14-.97-.88-1.17-1.64.24.1.6.4.8.39-.32-.16-.92-.93-.6-1.92.23.24.58.61.76.66-.19-.27-.27-.96.17-1.5.17.76,1.43,1.66,2.21,1.6.32-1.8,2.12-1.88,2.88-.61.37,0,1.06.18,1.06.18,0,0-.45.23-.91.33.32.06.39.04.87.03-.28.21-.54.43-.94.55,0,.03-.02.06-.03.09,1.14.21,2.2-.35,2.51-.58.16.66-.28,1.41-1.32,1.75.21.06.43.08.79,0h0v.02h0Z"/>
  <path class="cls-2" d="M43.29,18.8c-.93,1.24-1.73,1.3-2.35,1.24.29.19.88.29,1.32.36-1.81,1.13-2.93,1.7-5.8.51-2.65,1.78-6.01,1.25-8.91.66,2.39-.25,3.49-1.13,4.89-1.76-.55-.21-1.48-1.35-1.79-2.52.36.16.92.61,1.23.59-.49-.25-1.41-1.42-.92-2.94.35.36.89.94,1.17,1.02-.29-.41-.41-1.48.25-2.29.25,1.17,2.19,2.54,3.38,2.44.5-2.75,3.24-2.88,4.41-.94.56,0,1.63.28,1.63.28,0,0-.69.36-1.4.51.48.09.59.07,1.34.05-.42.32-.83.66-1.45.85,0,.05-.03.1-.04.14,1.75.33,3.36-.54,3.84-.89.24,1.02-.43,2.16-2.02,2.68.32.09.66.13,1.22,0h0Z"/>
  <path class="cls-2" d="M29.84,28.69c-1.52,2.27-2.83,2.38-3.84,2.27.48.35,1.43.53,2.16.65-2.95,2.07-4.78,3.11-9.46.93-4.31,3.25-9.81,2.29-14.52,1.21,3.9-.46,5.68-2.07,7.98-3.21-.9-.39-2.42-2.46-2.92-4.59.59.29,1.49,1.11,2,1.08-.8-.45-2.3-2.6-1.5-5.36.58.66,1.45,1.71,1.91,1.86-.48-.74-.66-2.69.41-4.18.41,2.14,3.57,4.64,5.51,4.46.81-5.02,5.28-5.26,7.19-1.71.91.01,2.65.51,2.65.51,0,0-1.13.65-2.28.94.79.16.96.13,2.18.1-.69.58-1.36,1.21-2.36,1.54-.02.09-.04.17-.06.26,2.85.6,5.48-.98,6.26-1.63.4,1.86-.7,3.94-3.29,4.89.53.16,1.08.23,1.98,0h0v-.02Z"/>
</svg>